<svg id="visual" viewBox="0 0 960 540" width="960" height="540" xmlns="http://www.w3.org/2000/svg" xmlns:xlink="http://www.w3.org/1999/xlink" version="1.1"><rect x="0" y="0" width="960" height="540" fill="#ffffff"></rect><defs><linearGradient id="grad1_0" x1="43.8%" y1="100%" x2="100%" y2="0%"><stop offset="14.444444444444446%" stop-color="#ffffff" stop-opacity="1"></stop><stop offset="85.55555555555554%" stop-color="#ffffff" stop-opacity="1"></stop></linearGradient></defs><defs><linearGradient id="grad2_0" x1="0%" y1="100%" x2="56.3%" y2="0%"><stop offset="14.444444444444446%" stop-color="#ffffff" stop-opacity="1"></stop><stop offset="85.55555555555554%" stop-color="#ffffff" stop-opacity="1"></stop></linearGradient></defs><g transform="translate(960, 540)"><path d="M-243 0C-240.2 -32.4 -237.5 -64.9 -224.5 -93C-211.5 -121.1 -188.3 -145 -164 -164C-139.8 -183.1 -114.4 -197.4 -86.9 -209.7C-59.3 -222.1 -29.7 -232.5 0 -243L0 0Z" fill="#3f1d2b"></path></g><g transform="translate(0, 0)"><path d="M243 0C243.5 35.6 244 71.1 224.5 93C205 114.9 165.6 123 140.7 140.7C115.9 158.4 105.6 185.5 84.6 204.2C63.6 222.8 31.8 232.9 0 243L0 0Z" fill="#3f1d2b"></path></g></svg>