<?xml version="1.0" encoding="utf-8"?><!-- Uploaded to: SVG Repo, www.svgrepo.com, Generator: SVG Repo Mixer Tools -->
<svg width="800px" height="800px" viewBox="0 0 24 24" id="mail" xmlns="http://www.w3.org/2000/svg" class="icon multi-color"><title style="stroke-width: 2;">mail</title><path id="tertiary-fill" d="M21,8v7.73A2,2,0,0,1,20,16H4a2,2,0,0,1-1-.27V8l9,5Z" style="fill: #b7b7b7; stroke-width: 2;"></path><path id="secondary-fill" d="M21,6V8l-9,5L3,8V6A1,1,0,0,1,4,5H20A1,1,0,0,1,21,6Z" style="fill: rgb(44, 169, 188); stroke-width: 2;"></path><path id="primary-stroke" d="M21,6V8l-9,5L3,8V6A1,1,0,0,1,4,5H20A1,1,0,0,1,21,6Zm-9,7L3,8V18a1,1,0,0,0,1,1H20a1,1,0,0,0,1-1V8Z" style="fill: none; stroke: rgb(0, 0, 0); stroke-linecap: round; stroke-linejoin: round; stroke-width: 2;"></path></svg>