<svg xmlns="http://www.w3.org/2000/svg" version="1.1" xmlns:xlink="http://www.w3.org/1999/xlink" xmlns:svgjs="http://svgjs.dev/svgjs" viewBox="0 0 800 800"><g fill="none" stroke-width="1.25" stroke="hsl(335, 77%, 50%)" stroke-linecap="round" data-darkreader-inline-stroke="" style="--darkreader-inline-stroke: #e5347d;"><line x1="384.5" y1="400" x2="415.5" y2="400" transform="rotate(0, 400, 400)" opacity="0.93"></line><line x1="486.5" y1="400" x2="313.5" y2="400" transform="rotate(4, 400, 400)" opacity="0.86"></line><line x1="740" y1="400" x2="60" y2="400" transform="rotate(8, 400, 400)" opacity="0.48"></line><line x1="249.5" y1="400" x2="550.5" y2="400" transform="rotate(12, 400, 400)" opacity="0.21"></line><line x1="486" y1="400" x2="314" y2="400" transform="rotate(16, 400, 400)" opacity="0.74"></line><line x1="648.5" y1="400" x2="151.5" y2="400" transform="rotate(20, 400, 400)" opacity="0.95"></line><line x1="421.5" y1="400" x2="378.5" y2="400" transform="rotate(24, 400, 400)" opacity="0.94"></line><line x1="402" y1="400" x2="398" y2="400" transform="rotate(28, 400, 400)" opacity="0.96"></line><line x1="587.5" y1="400" x2="212.5" y2="400" transform="rotate(32, 400, 400)" opacity="0.78"></line><line x1="531" y1="400" x2="269" y2="400" transform="rotate(36, 400, 400)" opacity="0.32"></line><line x1="345.5" y1="400" x2="454.5" y2="400" transform="rotate(40, 400, 400)" opacity="0.71"></line><line x1="358" y1="400" x2="442" y2="400" transform="rotate(44, 400, 400)" opacity="0.95"></line><line x1="503.5" y1="400" x2="296.5" y2="400" transform="rotate(48, 400, 400)" opacity="0.70"></line><line x1="617" y1="400" x2="183" y2="400" transform="rotate(52, 400, 400)" opacity="0.11"></line><line x1="555.5" y1="400" x2="244.5" y2="400" transform="rotate(56, 400, 400)" opacity="0.85"></line><line x1="331" y1="400" x2="469" y2="400" transform="rotate(60, 400, 400)" opacity="0.35"></line><line x1="382.5" y1="400" x2="417.5" y2="400" transform="rotate(64, 400, 400)" opacity="0.33"></line><line x1="441" y1="400" x2="359" y2="400" transform="rotate(68, 400, 400)" opacity="0.24"></line><line x1="231" y1="400" x2="569" y2="400" transform="rotate(72, 400, 400)" opacity="0.14"></line><line x1="272.5" y1="400" x2="527.5" y2="400" transform="rotate(76, 400, 400)" opacity="0.60"></line><line x1="208" y1="400" x2="592" y2="400" transform="rotate(80, 400, 400)" opacity="0.88"></line><line x1="298.5" y1="400" x2="501.5" y2="400" transform="rotate(84, 400, 400)" opacity="0.98"></line><line x1="667.5" y1="400" x2="132.5" y2="400" transform="rotate(88, 400, 400)" opacity="0.58"></line><line x1="193" y1="400" x2="607" y2="400" transform="rotate(92, 400, 400)" opacity="0.29"></line><line x1="561.5" y1="400" x2="238.5" y2="400" transform="rotate(96, 400, 400)" opacity="0.24"></line><line x1="430.5" y1="400" x2="369.5" y2="400" transform="rotate(100, 400, 400)" opacity="0.56"></line><line x1="598.5" y1="400" x2="201.5" y2="400" transform="rotate(104, 400, 400)" opacity="0.41"></line><line x1="580" y1="400" x2="220" y2="400" transform="rotate(108, 400, 400)" opacity="0.69"></line><line x1="534.5" y1="400" x2="265.5" y2="400" transform="rotate(112, 400, 400)" opacity="0.81"></line><line x1="360" y1="400" x2="440" y2="400" transform="rotate(116, 400, 400)" opacity="0.71"></line><line x1="404.5" y1="400" x2="395.5" y2="400" transform="rotate(120, 400, 400)" opacity="0.68"></line><line x1="609.5" y1="400" x2="190.5" y2="400" transform="rotate(124, 400, 400)" opacity="0.21"></line><line x1="546" y1="400" x2="254" y2="400" transform="rotate(128, 400, 400)" opacity="0.56"></line><line x1="350" y1="400" x2="450" y2="400" transform="rotate(132, 400, 400)" opacity="0.65"></line><line x1="589.5" y1="400" x2="210.5" y2="400" transform="rotate(136, 400, 400)" opacity="0.08"></line><line x1="620" y1="400" x2="180" y2="400" transform="rotate(140, 400, 400)" opacity="0.38"></line><line x1="200.5" y1="400" x2="599.5" y2="400" transform="rotate(144, 400, 400)" opacity="0.47"></line><line x1="347.5" y1="400" x2="452.5" y2="400" transform="rotate(148, 400, 400)" opacity="0.18"></line><line x1="673.5" y1="400" x2="126.5" y2="400" transform="rotate(152, 400, 400)" opacity="0.51"></line><line x1="411.5" y1="400" x2="388.5" y2="400" transform="rotate(156, 400, 400)" opacity="0.70"></line><line x1="671.5" y1="400" x2="128.5" y2="400" transform="rotate(160, 400, 400)" opacity="0.98"></line><line x1="685.5" y1="400" x2="114.5" y2="400" transform="rotate(164, 400, 400)" opacity="0.74"></line><line x1="544" y1="400" x2="256" y2="400" transform="rotate(168, 400, 400)" opacity="0.23"></line><line x1="688" y1="400" x2="112" y2="400" transform="rotate(172, 400, 400)" opacity="0.47"></line><line x1="343.5" y1="400" x2="456.5" y2="400" transform="rotate(176, 400, 400)" opacity="0.93"></line><line x1="417" y1="400" x2="383" y2="400" transform="rotate(180, 400, 400)" opacity="0.36"></line><line x1="747" y1="400" x2="53" y2="400" transform="rotate(184, 400, 400)" opacity="0.41"></line><line x1="631" y1="400" x2="169" y2="400" transform="rotate(188, 400, 400)" opacity="0.76"></line><line x1="554.5" y1="400" x2="245.5" y2="400" transform="rotate(192, 400, 400)" opacity="0.27"></line><line x1="263.5" y1="400" x2="536.5" y2="400" transform="rotate(196, 400, 400)" opacity="0.56"></line><line x1="352" y1="400" x2="448" y2="400" transform="rotate(200, 400, 400)" opacity="0.17"></line><line x1="451.5" y1="400" x2="348.5" y2="400" transform="rotate(204, 400, 400)" opacity="0.51"></line><line x1="559.5" y1="400" x2="240.5" y2="400" transform="rotate(208, 400, 400)" opacity="0.12"></line><line x1="191.5" y1="400" x2="608.5" y2="400" transform="rotate(212, 400, 400)" opacity="0.29"></line><line x1="336" y1="400" x2="464" y2="400" transform="rotate(216, 400, 400)" opacity="0.17"></line><line x1="617.5" y1="400" x2="182.5" y2="400" transform="rotate(220, 400, 400)" opacity="0.71"></line><line x1="542.5" y1="400" x2="257.5" y2="400" transform="rotate(224, 400, 400)" opacity="0.40"></line><line x1="502" y1="400" x2="298" y2="400" transform="rotate(228, 400, 400)" opacity="0.77"></line><line x1="736" y1="400" x2="64" y2="400" transform="rotate(232, 400, 400)" opacity="0.33"></line><line x1="399.5" y1="400" x2="400.5" y2="400" transform="rotate(236, 400, 400)" opacity="0.32"></line><line x1="329.5" y1="400" x2="470.5" y2="400" transform="rotate(240, 400, 400)" opacity="0.47"></line><line x1="577" y1="400" x2="223" y2="400" transform="rotate(244, 400, 400)" opacity="0.48"></line><line x1="548.5" y1="400" x2="251.5" y2="400" transform="rotate(248, 400, 400)" opacity="0.52"></line><line x1="577" y1="400" x2="223" y2="400" transform="rotate(252, 400, 400)" opacity="0.93"></line><line x1="561" y1="400" x2="239" y2="400" transform="rotate(256, 400, 400)" opacity="0.91"></line><line x1="664.5" y1="400" x2="135.5" y2="400" transform="rotate(260, 400, 400)" opacity="0.19"></line><line x1="692.5" y1="400" x2="107.5" y2="400" transform="rotate(264, 400, 400)" opacity="0.70"></line><line x1="453.5" y1="400" x2="346.5" y2="400" transform="rotate(268, 400, 400)" opacity="0.96"></line><line x1="586" y1="400" x2="214" y2="400" transform="rotate(272, 400, 400)" opacity="0.78"></line><line x1="455.5" y1="400" x2="344.5" y2="400" transform="rotate(276, 400, 400)" opacity="0.60"></line><line x1="602.5" y1="400" x2="197.5" y2="400" transform="rotate(280, 400, 400)" opacity="0.30"></line><line x1="621.5" y1="400" x2="178.5" y2="400" transform="rotate(284, 400, 400)" opacity="0.21"></line><line x1="602" y1="400" x2="198" y2="400" transform="rotate(288, 400, 400)" opacity="0.43"></line><line x1="407" y1="400" x2="393" y2="400" transform="rotate(292, 400, 400)" opacity="0.26"></line><line x1="678.5" y1="400" x2="121.5" y2="400" transform="rotate(296, 400, 400)" opacity="0.08"></line><line x1="410" y1="400" x2="390" y2="400" transform="rotate(300, 400, 400)" opacity="0.93"></line><line x1="694" y1="400" x2="106" y2="400" transform="rotate(304, 400, 400)" opacity="0.43"></line><line x1="514.5" y1="400" x2="285.5" y2="400" transform="rotate(308, 400, 400)" opacity="0.47"></line><line x1="700" y1="400" x2="100" y2="400" transform="rotate(312, 400, 400)" opacity="0.12"></line><line x1="710" y1="400" x2="90" y2="400" transform="rotate(316, 400, 400)" opacity="0.85"></line><line x1="727" y1="400" x2="73" y2="400" transform="rotate(320, 400, 400)" opacity="0.43"></line><line x1="254.5" y1="400" x2="545.5" y2="400" transform="rotate(324, 400, 400)" opacity="0.38"></line><line x1="490.5" y1="400" x2="309.5" y2="400" transform="rotate(328, 400, 400)" opacity="0.61"></line><line x1="258.5" y1="400" x2="541.5" y2="400" transform="rotate(332, 400, 400)" opacity="0.81"></line><line x1="715.5" y1="400" x2="84.5" y2="400" transform="rotate(336, 400, 400)" opacity="0.48"></line><line x1="688" y1="400" x2="112" y2="400" transform="rotate(340, 400, 400)" opacity="0.43"></line><line x1="562.5" y1="400" x2="237.5" y2="400" transform="rotate(344, 400, 400)" opacity="0.37"></line><line x1="674" y1="400" x2="126" y2="400" transform="rotate(348, 400, 400)" opacity="0.42"></line></g></svg>