<svg xmlns="http://www.w3.org/2000/svg" version="1.1" xmlns:xlink="http://www.w3.org/1999/xlink" xmlns:svgjs="http://svgjs.dev/svgjs" viewBox="0 0 800 800"><defs><linearGradient x1="50%" y1="0%" x2="50%" y2="100%" id="uundulate-grad"><stop stop-color="hsl(0, 0%, 0%)" stop-opacity="1" offset="45%"></stop><stop stop-color="hsl(316, 100%, 48%)" stop-opacity="1" offset="100%"></stop></linearGradient></defs><g stroke-width="1" stroke="url(#uundulate-grad)" fill="none"><path d="M444.50461525218805 296.03371527680116C471.15771756214735 343.91781763549295 503.33959532385484 491.63509995752133 484.210613268728 522.761462585035C465.0816312136013 553.8878252125487 388.96866750353115 477.6544779953009 352.6855013875793 445.440255888867C316.40233527162735 413.2260337824331 309.3034532468785 399.90871410447556 310.0514159121587 368.1331964741522C310.7993785774389 336.3576788438289 328.26463898508456 307.93849651276275 356.275722180924 292.9177712633147C384.28680537676337 277.8970460138666 417.85151294222885 248.14961291810937 444.50461525218805 296.03371527680116C471.15771756214735 343.91781763549295 503.33959532385484 491.63509995752133 484.210613268728 522.761462585035 "></path><path d="M442.03212221598795 301.8096301561716C467.2044966198383 347.0335046060472 497.5984922836732 486.54427124351844 479.5322314538313 515.941391502837C461.4659706239893 545.3385117621553 389.581504897812 473.3403505014214 355.3140702327463 442.91580740090046C321.04663556768065 412.4912643003795 314.34213587764003 399.91379571564187 315.04854506151577 369.9035846203365C315.7549542453915 339.8933735250311 332.24992240816795 313.05303465680197 358.7048343153497 298.86679414343433C385.15974622253134 284.6805536300667 416.8597478121376 256.58575570629597 442.03212221598795 301.8096301561716C467.2044966198383 347.0335046060472 497.5984922836732 486.54427124351844 479.5322314538313 515.941391502837 "></path><path d="M439.55962917978786 307.5855145179639C463.2512756775293 350.1491610590233 491.85738924349164 481.4534120119374 474.85384963893443 509.12128990306064C457.85031003437734 536.7891677941839 390.1943422920928 469.0261924899637 357.9426390779133 440.3913283953557C325.6909358637339 411.7564643007478 319.38081850840155 399.91884680923 320.04567421087285 371.67394224894264C320.71052991334415 343.4290376886552 336.2352058312514 318.16754228326306 361.1339464497753 304.8157865059759C386.0326870682992 291.4640307286887 415.8679826820463 265.0218679769045 439.55962917978786 307.5855145179639C463.2512756775293 350.1491610590233 491.85738924349164 481.4534120119374 474.85384963893443 509.12128990306064 "></path><path d="M437.08716666116584 313.3614293973343C459.2980852527985 353.2648480295775 486.1163167208881 476.3625832979344 470.1754983416158 502.3012188208626C454.23467996234353 528.2398543437906 390.80721020395174 464.7120649960841 360.5712384406585 437.86687990738915C330.33526667736527 411.0216948186942 324.4195316567412 399.9239284203963 325.04283387780805 373.4443303951269C325.66613609887486 346.9647323698574 340.2205197719129 323.2820804273023 363.5630891017791 310.7648093860956C386.9056584316453 298.2475383448888 414.8762480695332 273.45801076509116 437.08716666116584 313.3614293973343C459.2980852527985 353.2648480295775 486.1163167208881 476.3625832979344 470.1754983416158 502.3012188208626 "></path><path d="M434.61468888375475 319.1373442767047C455.34487956927865 356.3805350001317 480.3752289394956 471.2717545839315 465.4971317855081 495.4811477386644C450.6190346315206 519.6905408933973 391.4200628570216 460.3979375022045 363.1998225446146 435.3424314194226C334.9795822322076 410.28692533664065 329.45822954629176 399.9290100315626 330.03997828595413 375.21471854131113C330.62172702561656 350.50042705105966 344.2058184537854 328.3966185713415 365.99221649499384 316.71383226621526C387.77861453620227 305.031045961089 413.884498198231 281.89415355327776 434.61468888375475 319.1373442767047C455.34487956927865 356.3805350001317 480.3752289394956 471.2717545839315 465.4971317855081 495.4811477386644 "></path><path d="M432.1422263651328 324.913228638497C451.3916891445478 359.49619145310777 474.6341564168921 466.1808953523505 460.8187804881894 488.6610461388882C447.00340455948674 511.1411969254258 392.0329307688806 456.0837794907468 365.82842190735977 432.8179524138779C339.62391304583895 409.55212533700893 334.49694269463146 399.9340611251507 335.03713795288934 376.98507616991725C335.5773332111473 354.0360912146837 348.1911323944469 333.51112619780264 368.4213591469976 322.66282462875677C388.6515858995483 311.81452305971095 412.89276358571783 290.3302658238863 432.1422263651328 324.913228638497C451.3916891445478 359.49619145310777 474.6341564168921 466.1808953523505 460.8187804881894 488.6610461388882 "></path><path d="M429.66971807014363 330.6891435178675C447.43845294344976 362.611878423662 468.89303811792144 461.0900666383476 456.1403834145036 481.84097505669C443.38772871108574 502.59188347503255 392.64575290437233 451.7696519968673 368.45697549373773 430.2935039259113C344.26819808310313 408.8173558549554 339.5356100666039 399.9391427363171 340.03425184345735 378.7554643161015C340.53289362031086 357.57178589588597 352.17640055874125 338.62566434184185 370.8504560226342 328.61184750887645C389.52451148652716 318.59803067591105 411.9009831968375 298.7664086120729 429.66971807014363 330.6891435178675C447.43845294344976 362.611878423662 468.89303811792144 461.0900666383476 456.1403834145036 481.84097505669 "></path><path d="M427.19727081031067 336.4650583972379C443.485277777508 365.7275653942162 463.151980854107 455.99923792434464 451.462047375974 475.02090397449183C439.772113897841 494.0425700246392 393.2586360750203 447.4555245029877 371.08559011527194 427.76905543794476C348.91254415552356 408.0825863729018 344.5743384737326 399.9442243474833 345.0314267691816 380.52585246228574C345.48851506463063 361.10748057708815 356.1617297581919 343.74020248588107 373.2796139334271 334.56087038899614C390.39749810866226 325.3815382921112 410.9092638431134 307.20255140025955 427.19727081031067 336.4650583972379C443.485277777508 365.7275653942162 463.151980854107 455.99923792434464 451.462047375974 475.02090397449183 "></path><path d="M424.7247777741106 342.24095801781925C439.532056835199 368.84323710598136 457.4108778139254 450.9083939515526 446.7836655610772 468.2008176335047C436.156453308229 485.49324131545677 393.8714734693012 443.14138175031906 373.714158960439 425.2445916911891C353.55684445157686 407.34780163205915 349.6130211044941 399.94929069986057 350.0285559185387 382.2962253496809C350.4440907325832 364.64315999950134 360.14701318127527 348.8547253711312 375.70872606785275 340.50987801032676C391.2704389544302 332.16503064952224 409.9174987130221 315.6386789296571 424.7247777741106 342.24095801781925C439.532056835199 368.84323710598136 457.4108778139254 450.9083939515526 446.7836655610772 468.2008176335047 "></path><path d="M422.2522999966995 348.0168576384006C435.57885115167915 371.9589088177465 451.6697900325329 445.81754997876067 442.1052990049695 461.3807312925175C432.54080797740613 476.94391260627435 394.48432612237104 438.82723899765045 376.3427430643951 422.7201279444335C358.2011600064192 406.61301689121655 354.6517189940447 399.9543570522378 355.02570032668484 384.0665982370761C355.3996816593249 368.17883942191446 364.1323118631478 353.9692482563814 378.13785346106744 346.4588856316573C392.14339505898715 338.9485230069333 408.9257488417199 324.0748064590547 422.2522999966995 348.0168576384006C435.57885115167915 371.9589088177465 451.6697900325329 445.81754997876067 442.1052990049695 461.3807312925175 "></path><path d="M419.7798069604994 353.792772517771C431.6256302093701 375.0745957883007 445.9286869923513 440.72672126475777 437.4269171900727 454.5606602103194C428.92514738779414 468.394599155881 395.09716351665185 434.5131115037709 378.97131190956213 420.1956794564669C362.8454603024724 405.87824740916295 359.6904016248062 399.95943866340406 360.02282947604186 385.83698638326035C360.3552573272775 371.71453410311665 368.11759528623116 359.0837864004206 380.5669655954931 352.407908511777C393.01633590475507 345.7320306231334 407.9339837116286 332.51094924724134 419.7798069604994 353.792772517771C431.6256302093701 375.0745957883007 445.9286869923513 440.72672126475777 437.4269171900727 454.5606602103194 "></path><path d="M417.3073291830883 359.5686721383524C427.67242452585026 378.19026750006583 440.18759921095875 435.63587729196576 432.748550633965 447.7405738693322C425.30950205697127 459.84527044669863 395.71001616972177 430.19896875110226 381.5998960135182 417.6712157097113C367.4897758573147 405.14346266832035 364.72909951435685 399.9645050157813 365.019973884188 387.6073592706556C365.3108482540192 375.25021352552983 372.1028939681036 364.19830928567075 382.99609298870786 358.35691613310763C393.88929200931204 352.51552298054446 406.9422338403264 340.9470767766389 417.3073291830883 359.5686721383524C427.67242452585026 378.19026750006583 440.18759921095875 435.63587729196576 432.748550633965 447.7405738693322 "></path><path d="M414.83486666446635 365.34457175893374C423.7192341011194 381.305939211831 434.4465266883552 430.5450333191738 428.07019933664634 440.920487528345C421.6938719849374 451.2959417375163 396.3228840815807 425.88482599843366 384.2284953762634 415.14675196295565C372.1341066709461 404.4086779274777 369.7678126626965 399.96957136815854 370.0171335511232 389.3777321580508C370.26645443954993 378.78589294794295 376.0882079087652 369.3128321709209 385.42523564071166 364.30592375443825C394.7622633726581 359.29901533795555 405.9504992278133 349.3832043060365 414.83486666446635 365.34457175893374C423.7192341011194 381.305939211831 434.4465266883552 430.5450333191738 428.07019933664634 440.920487528345 "></path><path d="M412.3623888870553 371.12048663830416C419.7660284175995 384.4216261823852 428.70543890696274 425.45420460517084 423.3918327805386 434.1004164461469C418.0782266541145 442.7466282871229 396.93573673465056 421.57069850455406 386.8570794802195 412.6223034749891C376.7784222257884 403.6739084454241 374.80651055224706 399.9746529793248 375.01427795926935 391.148120304235C375.22204536629164 382.3215876291452 380.07350659063763 374.4273703149601 387.85436303392635 370.2549466345579C395.6352194772151 366.08252295415565 404.9587493565111 357.8193470942231 412.3623888870553 371.12048663830416C419.7660284175995 384.4216261823852 428.70543890696274 425.45420460517084 423.3918327805386 434.1004164461469 "></path><path d="M409.88991110964423 376.8963862588855C415.8128227340796 387.53729789415036 422.96435112557015 420.3633606323789 418.7134662244309 427.2803301051597C414.4625813232916 434.1972995779405 397.5485893877205 417.25655575188546 389.4856635841756 410.09783972823345C381.4227377806307 402.93912370458145 379.84520844179764 399.97971933170203 380.0114223674155 392.9184931916302C380.1776362930333 385.8572670515583 384.0588052725101 379.5418932002103 390.2834904271411 376.2039542558885C396.5081755817721 372.8660153115667 403.9669994852088 366.25547462362067 409.88991110964423 376.8963862588855C415.8128227340796 387.53729789415036 422.96435112557015 420.3633606323789 418.7134662244309 427.2803301051597 "></path><path d="M407.41743333223314 382.67230113825593C411.8596170505597 390.65298486470454 417.2232633441776 415.27253191837593 414.03509966832314 420.46025902296157C410.84693599246873 425.6479861275472 398.16144204079035 412.94242825800586 392.1142476881317 407.5733912402669C386.0670533354731 402.2043542225279 384.8839063313482 399.98480094286833 385.00856677556163 394.68888133781445C385.133227219775 389.39296173276057 388.0441039543826 384.65643134424954 392.71261782035583 382.1529771360082C397.38113168632907 379.64952292776684 402.9752496139066 374.6916174118073 407.41743333223314 382.67230113825593C411.8596170505597 390.65298486470454 417.2232633441776 415.27253191837593 414.03509966832314 420.46025902296157 "></path><path d="M404.9449555548221 388.4481855000482C407.9064113670398 393.76864131768065 411.4821755627851 410.1816726867949 409.35673311221547 413.6401574231853C407.2312906616458 417.0986421595757 398.7742946938602 408.6282702465482 394.7428317920878 405.0489122347222C390.7113688903154 401.4695542228962 389.92260422089885 399.9898520364565 390.0057111837077 396.45923896642057C390.08881814651664 392.92862589638463 392.02940263625504 389.77093897071063 395.1417452135706 388.10196949854975C398.25408779088605 386.4330000263888 401.9834997426044 383.1277296824158 404.9449555548221 388.4481855000482C407.9064113670398 393.76864131768065 411.4821755627851 410.1816726867949 409.35673311221547 413.6401574231853 "></path><path d="M402.47247777741103 394.22410037941864C403.9532056835199 396.8843282882348 405.74108778139254 405.09084397279196 404.67836655610773 406.8200863409872C403.6156453308229 408.5493287091824 399.38714734693013 404.3141427526686 397.3714158960439 402.52446374675566C395.3556844451577 400.73478474084266 394.9613021104494 399.99493364762276 395.00285559185386 398.2296271126048C395.04440907325835 396.4643205775869 396.01470131812755 394.88547711474985 397.57087260678526 394.0509923786694C399.127043895443 393.21650764258897 400.9917498713022 391.5638724706024 402.47247777741103 394.22410037941864C403.9532056835199 396.8843282882348 405.74108778139254 405.09084397279196 404.67836655610773 406.8200863409872 "></path></g></svg>