<?xml version="1.0" standalone="no"?><svg xmlns="http://www.w3.org/2000/svg" viewBox="0 0 1440 320"><path fill="#e7008a" fill-opacity="1" d="M0,288L48,277.3C96,267,192,245,288,202.7C384,160,480,96,576,85.3C672,75,768,117,864,122.7C960,128,1056,96,1152,117.3C1248,139,1344,213,1392,250.7L1440,288L1440,320L1392,320C1344,320,1248,320,1152,320C1056,320,960,320,864,320C768,320,672,320,576,320C480,320,384,320,288,320C192,320,96,320,48,320L0,320Z" data-darkreader-inline-fill="" style="--darkreader-inline-fill: #b9006e;"></path></svg>