<?xml version="1.0" standalone="no"?><svg xmlns="http://www.w3.org/2000/svg" viewBox="0 0 1440 320"><path fill="#e7008a" fill-opacity="1" d="M0,96L48,96C96,96,192,96,288,117.3C384,139,480,181,576,213.3C672,245,768,267,864,261.3C960,256,1056,224,1152,197.3C1248,171,1344,149,1392,138.7L1440,128L1440,320L1392,320C1344,320,1248,320,1152,320C1056,320,960,320,864,320C768,320,672,320,576,320C480,320,384,320,288,320C192,320,96,320,48,320L0,320Z" data-darkreader-inline-fill="" style="--darkreader-inline-fill: #b9006e;"></path></svg>