<?xml version="1.0" standalone="no"?><svg xmlns="http://www.w3.org/2000/svg" viewBox="0 0 1440 320"><path fill="#e7008a" fill-opacity="1" d="M0,128L48,154.7C96,181,192,235,288,234.7C384,235,480,181,576,170.7C672,160,768,192,864,208C960,224,1056,224,1152,192C1248,160,1344,96,1392,64L1440,32L1440,320L1392,320C1344,320,1248,320,1152,320C1056,320,960,320,864,320C768,320,672,320,576,320C480,320,384,320,288,320C192,320,96,320,48,320L0,320Z" data-darkreader-inline-fill="" style="--darkreader-inline-fill: #b9006e;"></path></svg>