<?xml version="1.0" standalone="no"?><svg xmlns="http://www.w3.org/2000/svg" viewBox="0 0 1440 320"><path fill="#e7008a" fill-opacity="1" d="M0,96L48,122.7C96,149,192,203,288,192C384,181,480,107,576,80C672,53,768,75,864,85.3C960,96,1056,96,1152,128C1248,160,1344,224,1392,256L1440,288L1440,320L1392,320C1344,320,1248,320,1152,320C1056,320,960,320,864,320C768,320,672,320,576,320C480,320,384,320,288,320C192,320,96,320,48,320L0,320Z" data-darkreader-inline-fill="" style="--darkreader-inline-fill: #b9006e;"></path></svg>