<?xml version="1.0" standalone="no"?>
<svg xmlns:xlink="http://www.w3.org/1999/xlink" id="wave" style="transform:rotate(0deg); transition: 0.3s" viewBox="0 0 1440 170" version="1.1" xmlns="http://www.w3.org/2000/svg"><defs><linearGradient id="sw-gradient-0" x1="0" x2="0" y1="1" y2="0"><stop stop-color="rgba(243, 106, 62, 1)" offset="0%"/><stop stop-color="rgba(255, 11, 206.503, 1)" offset="100%"/></linearGradient></defs><path style="transform:translate(0, 0px); opacity:1" fill="url(#sw-gradient-0)" d="M0,51L34.3,59.5C68.6,68,137,85,206,96.3C274.3,108,343,113,411,102C480,91,549,62,617,45.3C685.7,28,754,23,823,42.5C891.4,62,960,108,1029,121.8C1097.1,136,1166,119,1234,119C1302.9,119,1371,136,1440,119C1508.6,102,1577,51,1646,36.8C1714.3,23,1783,45,1851,51C1920,57,1989,45,2057,59.5C2125.7,74,2194,113,2263,110.5C2331.4,108,2400,62,2469,45.3C2537.1,28,2606,40,2674,48.2C2742.9,57,2811,62,2880,68C2948.6,74,3017,79,3086,82.2C3154.3,85,3223,85,3291,79.3C3360,74,3429,62,3497,62.3C3565.7,62,3634,74,3703,79.3C3771.4,85,3840,85,3909,90.7C3977.1,96,4046,108,4114,113.3C4182.9,119,4251,119,4320,104.8C4388.6,91,4457,62,4526,65.2C4594.3,68,4663,102,4731,119C4800,136,4869,136,4903,136L4937.1,136L4937.1,170L4902.9,170C4868.6,170,4800,170,4731,170C4662.9,170,4594,170,4526,170C4457.1,170,4389,170,4320,170C4251.4,170,4183,170,4114,170C4045.7,170,3977,170,3909,170C3840,170,3771,170,3703,170C3634.3,170,3566,170,3497,170C3428.6,170,3360,170,3291,170C3222.9,170,3154,170,3086,170C3017.1,170,2949,170,2880,170C2811.4,170,2743,170,2674,170C2605.7,170,2537,170,2469,170C2400,170,2331,170,2263,170C2194.3,170,2126,170,2057,170C1988.6,170,1920,170,1851,170C1782.9,170,1714,170,1646,170C1577.1,170,1509,170,1440,170C1371.4,170,1303,170,1234,170C1165.7,170,1097,170,1029,170C960,170,891,170,823,170C754.3,170,686,170,617,170C548.6,170,480,170,411,170C342.9,170,274,170,206,170C137.1,170,69,170,34,170L0,170Z"/></svg>